<?xml version="1.0" encoding="UTF-8"?>
<svg width="700pt" height="700pt" version="1.1" viewBox="0 0 700 700" xmlns="http://www.w3.org/2000/svg" xmlns:xlink="http://www.w3.org/1999/xlink">
 <defs>
  <symbol id="g" overflow="visible">
   <path d="m39.219-2.3438c-2.0234 1.0547-4.1328 1.8438-6.3281 2.375-2.1875 0.53125-4.4766 0.79688-6.8594 0.79688-7.1055 0-12.734-1.9844-16.891-5.9531-4.1484-3.9766-6.2188-9.3672-6.2188-16.172 0-6.8125 2.0703-12.203 6.2188-16.172 4.1562-3.9766 9.7852-5.9688 16.891-5.9688 2.3828 0 4.6719 0.26562 6.8594 0.79688 2.1953 0.53125 4.3047 1.3242 6.3281 2.375v8.8281c-2.043-1.3945-4.0586-2.4141-6.0469-3.0625-1.9805-0.64453-4.0625-0.96875-6.25-0.96875-3.9297 0-7.0156 1.2617-9.2656 3.7812-2.2422 2.5117-3.3594 5.9766-3.3594 10.391 0 4.4062 1.1172 7.8711 3.3594 10.391 2.25 2.5117 5.3359 3.7656 9.2656 3.7656 2.1875 0 4.2695-0.32031 6.25-0.96875 1.9883-0.65625 4.0039-1.6758 6.0469-3.0625z"/>
  </symbol>
  <symbol id="f" overflow="visible">
   <path d="m16.094-41.094v9.0781h10.547v7.3281h-10.547v13.562c0 1.4922 0.28906 2.5 0.875 3.0312 0.59375 0.52344 1.7656 0.78125 3.5156 0.78125h5.2656v7.3125h-8.7812c-4.0312 0-6.8906-0.84375-8.5781-2.5312s-2.5312-4.5508-2.5312-8.5938v-13.562h-5.0938v-7.3281h5.0938v-9.0781z"/>
  </symbol>
  <symbol id="e" overflow="visible">
   <path d="m26.688-27.328v-17.141h10.297v44.469h-10.297v-4.625c-1.4062 1.8867-2.9609 3.2656-4.6562 4.1406-1.6992 0.875-3.6641 1.3125-5.8906 1.3125-3.9375 0-7.1797-1.5664-9.7188-4.7031-2.5312-3.1328-3.7969-7.1641-3.7969-12.094 0-4.9375 1.2656-8.9727 3.7969-12.109 2.5391-3.1328 5.7812-4.7031 9.7188-4.7031 2.2188 0 4.1758 0.44531 5.875 1.3281 1.707 0.88672 3.2656 2.2617 4.6719 4.125zm-6.7344 20.719c2.1875 0 3.8516-0.79688 5-2.3906 1.1562-1.6016 1.7344-3.9258 1.7344-6.9688 0-3.0508-0.57812-5.375-1.7344-6.9688-1.1484-1.6016-2.8125-2.4062-5-2.4062-2.1797 0-3.8438 0.80469-5 2.4062-1.1484 1.5938-1.7188 3.918-1.7188 6.9688 0 3.043 0.57031 5.3672 1.7188 6.9688 1.1562 1.5938 2.8203 2.3906 5 2.3906z"/>
  </symbol>
  <symbol id="d" overflow="visible">
   <path d="m21.953-6.6094c2.1875 0 3.8516-0.79688 5-2.3906 1.1562-1.6016 1.7344-3.9258 1.7344-6.9688 0-3.0508-0.57812-5.375-1.7344-6.9688-1.1484-1.6016-2.8125-2.4062-5-2.4062-2.1992 0-3.8867 0.80859-5.0625 2.4219-1.168 1.6055-1.75 3.9219-1.75 6.9531 0 3.0234 0.58203 5.3398 1.75 6.9531 1.1758 1.6055 2.8633 2.4062 5.0625 2.4062zm-6.8125-20.719c1.4141-1.8633 2.9766-3.2383 4.6875-4.125 1.7188-0.88281 3.6914-1.3281 5.9219-1.3281 3.9453 0 7.1875 1.5703 9.7188 4.7031 2.5312 3.1367 3.7969 7.1719 3.7969 12.109 0 4.9297-1.2656 8.9609-3.7969 12.094-2.5312 3.1367-5.7734 4.7031-9.7188 4.7031-2.2305 0-4.2031-0.44531-5.9219-1.3281-1.7109-0.88281-3.2734-2.2578-4.6875-4.125v4.625h-10.219v-44.469h10.219z"/>
  </symbol>
  <symbol id="c" overflow="visible">
   <path d="m35.062-41.328v9.0312c-2.3438-1.0391-4.6328-1.8281-6.8594-2.3594-2.2305-0.53906-4.3359-0.8125-6.3125-0.8125-2.625 0-4.5703 0.36719-5.8281 1.0938-1.2617 0.71875-1.8906 1.8398-1.8906 3.3594 0 1.1484 0.42188 2.043 1.2656 2.6875 0.85156 0.63672 2.3945 1.1836 4.625 1.6406l4.6875 0.9375c4.7383 0.94922 8.1094 2.3984 10.109 4.3438 2.0078 1.9492 3.0156 4.7109 3.0156 8.2812 0 4.7109-1.3984 8.2148-4.1875 10.516-2.793 2.293-7.0586 3.4375-12.797 3.4375-2.7109 0-5.4297-0.26172-8.1562-0.78125-2.7188-0.50781-5.4375-1.2695-8.1562-2.2812v-9.2812c2.7188 1.4492 5.3477 2.543 7.8906 3.2812 2.5508 0.73047 5.0039 1.0938 7.3594 1.0938 2.4062 0 4.2422-0.39844 5.5156-1.2031 1.2812-0.80078 1.9219-1.9453 1.9219-3.4375 0-1.332-0.43359-2.3594-1.2969-3.0781-0.86719-0.72656-2.5938-1.3789-5.1875-1.9531l-4.2656-0.9375c-4.2617-0.91406-7.3828-2.375-9.3594-4.375-1.9688-2-2.9531-4.6914-2.9531-8.0781 0-4.25 1.3672-7.5156 4.1094-9.7969 2.75-2.2891 6.6953-3.4375 11.844-3.4375 2.332 0 4.7383 0.17969 7.2188 0.53125 2.4766 0.34375 5.0391 0.87109 7.6875 1.5781z"/>
  </symbol>
  <symbol id="b" overflow="visible">
   <path d="m37.094-19.484v19.484h-10.281v-14.859c0-2.8008-0.0625-4.7227-0.1875-5.7656-0.125-1.0508-0.33984-1.8281-0.64062-2.3281-0.40625-0.66406-0.95312-1.1797-1.6406-1.5469-0.67969-0.375-1.4609-0.5625-2.3438-0.5625-2.125 0-3.8047 0.82422-5.0312 2.4688-1.2188 1.6484-1.8281 3.9297-1.8281 6.8438v15.75h-10.219v-44.469h10.219v17.141c1.5508-1.8633 3.1914-3.2383 4.9219-4.125 1.7266-0.88281 3.6445-1.3281 5.75-1.3281 3.6953 0 6.5 1.1367 8.4062 3.4062 1.9141 2.2617 2.875 5.5586 2.875 9.8906z"/>
  </symbol>
  <symbol id="a" overflow="visible">
   <path d="m4.9219-32.016h10.219v32.016h-10.219zm0-12.453h10.219v8.3438h-10.219z"/>
  </symbol>
 </defs>
 <g>
  <path d="m630.35 266.54c-38.043-177.23-165.64-237.62-218.66-255.42-46.352-15.57-96.688-14.75-141.87 2.1055-59.113 22.125-163.88 84.398-200.17 253.31-11.004 51.152 11.121 103.48 53.965 127.01 6.9062 3.8633 14.516 7.0234 22.477 9.4805 20.836 6.5547 44.715 6.3203 68.359-0.46875 4.332-1.2891 9.832-2.6914 16.387-4.0977v67.895c-45.184 0-81.941 36.754-81.941 81.941v11.707h397.99v-11.707c0-45.184-36.754-81.941-81.941-81.941v-68.945c8.5469 1.8711 15.57 3.6289 20.836 5.1523 12.176 3.5117 24.348 5.2656 36.172 5.2656 11.238 0 22.008-1.6406 32.191-4.8008 7.9609-2.457 15.453-5.7344 22.359-9.4805 42.73-23.648 64.855-75.855 53.852-127.01zm-399.63 223.23h23.41c3.8633 0 7.4922 0.46875 11.121 1.1719 1.1719 0.23438 2.3398 0.58594 3.3945 0.9375 2.3398 0.58594 4.6836 1.2891 7.0234 2.2227 1.2891 0.46875 2.457 1.1719 3.7461 1.7539 1.9883 0.9375 3.9805 1.9883 5.8516 3.1602 1.1719 0.82031 2.3398 1.6406 3.5117 2.457 1.7539 1.2891 3.3945 2.5742 4.918 4.0977 1.0547 0.9375 2.1055 1.9883 3.043 3.043 1.5234 1.6406 2.8086 3.2773 4.0977 5.0352 0.82031 1.0547 1.6406 2.2227 2.457 3.3945 1.2891 1.9883 2.3398 4.0977 3.3945 6.2031 0.58594 1.0547 1.1719 2.1055 1.6406 3.2773 1.2891 3.1602 2.3398 6.3203 3.043 9.7148 0 0.23438 0.11719 0.35156 0.23438 0.58594l-138.25 0.003907c5.3867-26.926 29.031-47.059 57.359-47.059zm291.47 46.824h-138.13c0-0.23438 0.11719-0.35156 0.23438-0.58594 0.70312-3.3945 1.7539-6.6719 3.043-9.7148 0.46875-1.1719 1.0547-2.1055 1.6406-3.2773 1.0547-2.1055 2.1055-4.2148 3.3945-6.2031 0.70312-1.1719 1.6406-2.2227 2.457-3.3945 1.2891-1.7539 2.6914-3.3945 4.0977-5.0352 0.9375-1.0547 1.9883-1.9883 3.043-3.043 1.5234-1.4062 3.1602-2.8086 4.918-4.0977 1.1719-0.82031 2.3398-1.6406 3.5117-2.457 1.8711-1.1719 3.8633-2.2227 5.8516-3.1602 1.2891-0.58594 2.457-1.2891 3.7461-1.7539 2.2227-0.9375 4.5664-1.5234 7.0234-2.2227 1.1719-0.35156 2.2227-0.70312 3.3945-0.9375 3.6289-0.70312 7.2578-1.1719 11.121-1.1719h23.41c28.094 0.23047 51.738 20.363 57.242 47.055zm-80.77-70.234c-2.6914 0-5.3828 0.11719-8.0781 0.35156-0.82031 0.11719-1.7539 0.23438-2.5742 0.35156-1.7539 0.23438-3.5117 0.46875-5.2656 0.82031-1.0547 0.23438-1.9883 0.46875-2.9258 0.70312-1.5234 0.35156-3.043 0.70312-4.5664 1.1719-1.0547 0.35156-1.9883 0.70312-3.043 1.0547-1.4062 0.46875-2.8086 0.9375-4.2148 1.5234-1.0547 0.35156-1.9883 0.82031-2.9258 1.2891-1.2891 0.58594-2.6914 1.2891-3.9805 1.8711-0.9375 0.46875-1.8711 1.0547-2.8086 1.5234-1.2891 0.70312-2.5742 1.5234-3.7461 2.3398-0.9375 0.58594-1.7539 1.1719-2.6914 1.7539-1.1719 0.82031-2.457 1.7539-3.6289 2.6914-0.82031 0.58594-1.6406 1.2891-2.457 1.9883-1.1719 1.0547-2.3398 1.9883-3.3945 3.043-0.70312 0.70312-1.4062 1.2891-2.1055 1.9883-1.1719 1.1719-2.2227 2.457-3.2773 3.6289-0.58594 0.70312-1.1719 1.2891-1.7539 1.9883-1.2891 1.6406-2.5742 3.2773-3.7461 5.0352-0.23438 0.35156-0.46875 0.70312-0.82031 1.0547-1.4062 2.1055-2.6914 4.332-3.9805 6.5547-0.35156 0.58594-0.58594 1.1719-0.82031 1.7539-0.82031 1.6406-1.7539 3.3945-2.457 5.1523-0.35156 0.82031-0.70312 1.7539-1.0547 2.5742-0.58594 1.5234-1.1719 3.043-1.6406 4.5664-0.35156 1.0547-0.58594 1.9883-0.82031 3.043-0.46875 1.5234-0.82031 2.9258-1.1719 4.4492-0.23438 1.0547-0.46875 2.2227-0.58594 3.2773-0.11719 0.9375-0.35156 1.7539-0.46875 2.6914h-25.051c-0.11719-0.9375-0.35156-1.7539-0.46875-2.6914-0.23438-1.0547-0.35156-2.2227-0.58594-3.2773-0.35156-1.5234-0.70312-2.9258-1.1719-4.4492-0.23438-1.0547-0.58594-1.9883-0.82031-3.043-0.46875-1.5234-1.0547-3.043-1.6406-4.5664-0.35156-0.82031-0.70313-1.7539-1.0547-2.5742-0.70312-1.7539-1.6406-3.3945-2.457-5.1523-0.35156-0.58594-0.58594-1.1719-0.82031-1.7539-1.1719-2.2227-2.5742-4.4492-3.9805-6.5547-0.23438-0.35156-0.58594-0.70312-0.82031-1.0547-1.1719-1.6406-2.457-3.3945-3.7461-4.918-0.58594-0.70313-1.1719-1.2891-1.7539-1.9883-1.0547-1.2891-2.2227-2.457-3.2773-3.6289-0.70312-0.70312-1.4062-1.4062-2.1055-1.9883-1.1719-1.0547-2.2227-2.1055-3.3945-3.043-0.82031-0.70312-1.6406-1.2891-2.457-1.9883-1.1719-0.9375-2.3398-1.8711-3.5117-2.6914-0.82031-0.58594-1.7539-1.1719-2.6914-1.7539-1.1719-0.82031-2.457-1.5234-3.7461-2.2227-0.9375-0.58594-1.8711-1.0547-2.8086-1.5234-1.2891-0.70312-2.5742-1.2891-3.9805-1.8711-0.9375-0.46875-1.9883-0.9375-2.9258-1.2891-1.4062-0.58594-2.8086-1.0547-4.2148-1.5234-1.0547-0.35156-1.9883-0.70312-3.043-1.0547-1.5234-0.46875-3.043-0.82031-4.5664-1.1719-0.9375-0.23438-1.9883-0.46875-2.9258-0.70312-1.7539-0.35156-3.5117-0.58594-5.2656-0.82031-0.82031-0.11719-1.7539-0.23438-2.5742-0.35156-2.6914-0.23438-5.2656-0.35156-8.0781-0.35156v-72.457c0.70312-0.11719 1.2891-0.23437 1.9883-0.35156 5.6172-0.9375 11.355-1.7539 17.207-2.457 1.4062-0.23438 2.8086-0.35156 4.332-0.58594 22.359-2.5742 46.473-4.0977 72.223-4.2148 24.816 0.23437 48.109 1.5234 69.648 3.8633 1.8711 0.23438 3.5117 0.46875 5.3828 0.70312 4.8008 0.58594 9.4805 1.1719 14.047 1.8711 0.82031 0.11719 1.6406 0.23437 2.457 0.35156l0.007813 73.043zm123.73-93.297c-5.6172 3.043-11.707 5.6172-18.027 7.7266-16.504 5.1523-35.586 4.918-54.898-0.58594-7.4922-2.1055-16.621-4.4492-27.273-6.5547l-0.003906-0.23438-7.1406-1.2891c-7.7266-1.4062-16.387-2.8086-25.637-3.9805-0.70312-0.11719-1.2891-0.11719-1.9883-0.23438-20.836-2.6914-45.301-4.5664-74.215-5.0352l-11.707-0.11719 0.003906 0.12109c-46.707 0.70312-82.176 5.2656-108.16 10.418l-5.3867 1.0547c-8.7773 1.8711-16.387 3.8633-22.824 5.7344-19.312 5.5-38.395 5.8516-54.898 0.70312-6.4375-1.9883-12.523-4.5664-18.027-7.7266-33.828-18.613-51.27-60.402-42.375-101.61 33.945-158.02 130.75-215.85 185.42-236.34 40.152-14.984 84.984-15.688 126.3-1.7539 61.223 20.484 168.91 78.664 203.21 238.09 8.7773 41.203-8.5469 82.992-42.375 101.6z"/>
  <path d="m250.73 118.7c-4.5664-4.5664-11.941-4.5664-16.504 0-4.5664 4.5664-4.5664 11.941 0 16.504l81.941 81.941c2.3398 2.3398 5.2656 3.3945 8.3125 3.3945 3.043 0 5.9688-1.1719 8.3125-3.3945 4.5664-4.5664 4.5664-11.941 0-16.504z"/>
  <path d="m371.19 220.54c3.043 0 5.9688-1.1719 8.3125-3.3945l81.941-81.941c4.5664-4.5664 4.5664-11.941 0-16.504-4.5664-4.5664-11.941-4.5664-16.504 0l-81.941 81.941c-4.5664 4.5664-4.5664 11.941 0 16.504 2.2227 2.3398 5.1484 3.3945 8.1914 3.3945z"/>
  <path d="m502.88 157.09c-35.352 0-96.336 52.441-103.71 58.996-32.309 32.309-44.949 61.336-37.691 86.27 10.418 35.703 57.594 46.355 59.582 46.824l1.2891 0.23437h1.2891c92.594 0 108.16-149.95 108.86-157.44-0.003906-32.426-22.715-34.883-29.621-34.883zm-77.84 168.8c-1.5234-0.46875-4.6836-1.2891-8.4297-2.6914 19.312-6.3203 33.711-23.293 35.938-44.129-12.645-0.35547-22.828-10.656-22.828-23.414 0-7.4922 3.5117-14.047 9.0117-18.379-4.332-4.6836-9.5977-8.4297-15.336-11.238 24.348-20.016 61.57-45.652 79.48-45.652 3.043 0 6.2031 0 6.3203 10.301-0.22656 1.4062-13.809 133.56-84.156 135.2z"/>
  <path d="m192.68 157.09c-6.9062 0-29.617 2.457-29.617 35.938 0.58594 6.4375 16.27 156.27 108.86 156.39h1.2891l1.2891-0.23437c1.9883-0.46875 49.164-11.121 59.582-46.824 7.2578-24.934-5.3828-53.965-38.277-86.738-6.793-6.0859-67.777-58.527-103.13-58.527zm77.961 168.8c-70.234-1.6406-84.047-133.8-84.164-134.03 0-11.473 3.1602-11.473 6.2031-11.473 18.027 0 55.602 25.988 79.48 45.652-5.7344 2.8086-11.004 6.6719-15.336 11.238 5.5 4.332 9.0117 10.887 9.0117 18.379 0 12.758-10.184 23.059-22.824 23.293 2.3398 20.836 16.738 37.926 36.055 44.129-3.2773 1.2891-6.2031 2.2266-8.4258 2.8125z"/>
  <use x="66.839844" y="735.585937" xlink:href="#g"/>
  <use x="217.847656" y="735.585937" xlink:href="#f"/>
  <use x="285.519531" y="735.585937" xlink:href="#e"/>
  <use x="347.792969" y="735.585937" xlink:href="#d"/>
  <use x="448.21875" y="735.585937" xlink:href="#c"/>
  <use x="625.6875" y="735.585937" xlink:href="#b"/>
  <use x="667.355469" y="735.585937" xlink:href="#a"/>
 </g>
</svg>
