<?xml version="1.0" encoding="UTF-8"?>
<svg width="700pt" height="700pt" version="1.1" viewBox="0 0 700 700" xmlns="http://www.w3.org/2000/svg" xmlns:xlink="http://www.w3.org/1999/xlink">
 <defs>
  <symbol id="l" overflow="visible">
   <path d="m29.312-1.75c-1.5117 0.78125-3.0898 1.3711-4.7344 1.7656-1.6367 0.40625-3.3398 0.60938-5.1094 0.60938-5.3125 0-9.5273-1.4844-12.641-4.4531-3.1055-2.9688-4.6562-7-4.6562-12.094s1.5508-9.125 4.6562-12.094c3.1133-2.9688 7.3281-4.4531 12.641-4.4531 1.7695 0 3.4727 0.19922 5.1094 0.59375 1.6445 0.39844 3.2227 0.99219 4.7344 1.7812v6.5938c-1.5312-1.0391-3.0391-1.8008-4.5156-2.2812-1.4805-0.48828-3.0391-0.73438-4.6719-0.73438-2.9375 0-5.2461 0.94531-6.9219 2.8281-1.6797 1.875-2.5156 4.4648-2.5156 7.7656 0 3.293 0.83594 5.8828 2.5156 7.7656 1.6758 1.875 3.9844 2.8125 6.9219 2.8125 1.6328 0 3.1914-0.23828 4.6719-0.71875 1.4766-0.48828 2.9844-1.2539 4.5156-2.2969z"/>
  </symbol>
  <symbol id="h" overflow="visible">
   <path d="m21.453-17.406c-0.67969-0.3125-1.3516-0.53906-2.0156-0.6875-0.65625-0.15625-1.3203-0.23438-1.9844-0.23438-1.9688 0-3.4844 0.63281-4.5469 1.8906-1.0547 1.2617-1.5781 3.0703-1.5781 5.4219v11.016h-7.6562v-23.922h7.6562v3.9219c0.97656-1.5625 2.1016-2.7031 3.375-3.4219 1.2812-0.71875 2.8125-1.0781 4.5938-1.0781 0.25 0 0.52344 0.011719 0.82812 0.03125 0.30078 0.023438 0.73438 0.070312 1.2969 0.14062z"/>
  </symbol>
  <symbol id="a" overflow="visible">
   <path d="m27.562-12.031v2.1875h-17.891c0.1875 1.793 0.83203 3.1367 1.9375 4.0312 1.1133 0.89844 2.6719 1.3438 4.6719 1.3438 1.6016 0 3.25-0.23438 4.9375-0.70312 1.6875-0.47656 3.4219-1.2031 5.2031-2.1719v5.8906c-1.8047 0.6875-3.6094 1.2031-5.4219 1.5469-1.8125 0.35156-3.6211 0.53125-5.4219 0.53125-4.3359 0-7.7031-1.0977-10.109-3.2969-2.3984-2.207-3.5938-5.2969-3.5938-9.2656 0-3.9062 1.1758-6.9727 3.5312-9.2031 2.3633-2.2383 5.6094-3.3594 9.7344-3.3594 3.7578 0 6.7695 1.1367 9.0312 3.4062 2.2578 2.2617 3.3906 5.2812 3.3906 9.0625zm-7.8594-2.5312c0-1.457-0.42969-2.6289-1.2812-3.5156-0.84375-0.89453-1.9492-1.3438-3.3125-1.3438-1.4922 0-2.6992 0.41797-3.625 1.25-0.91797 0.83594-1.4922 2.0391-1.7188 3.6094z"/>
  </symbol>
  <symbol id="c" overflow="visible">
   <path d="m14.391-10.766c-1.5938 0-2.793 0.27344-3.5938 0.8125-0.80469 0.54297-1.2031 1.3398-1.2031 2.3906 0 0.96875 0.32031 1.7305 0.96875 2.2812 0.64453 0.54297 1.5469 0.8125 2.7031 0.8125 1.4375 0 2.6445-0.51562 3.625-1.5469 0.98828-1.0312 1.4844-2.3203 1.4844-3.875v-0.875zm11.688-2.8906v13.656h-7.7031v-3.5469c-1.0312 1.4492-2.1875 2.5078-3.4688 3.1719s-2.8398 1-4.6719 1c-2.4805 0-4.4961-0.72266-6.0469-2.1719-1.543-1.4453-2.3125-3.3203-2.3125-5.625 0-2.8125 0.96094-4.8672 2.8906-6.1719 1.9375-1.3125 4.9688-1.9688 9.0938-1.9688h4.5156v-0.60938c0-1.207-0.48047-2.0938-1.4375-2.6562-0.94922-0.5625-2.4375-0.84375-4.4688-0.84375-1.6367 0-3.1562 0.16797-4.5625 0.5-1.4062 0.32422-2.7188 0.8125-3.9375 1.4688v-5.8281c1.6445-0.40625 3.2891-0.70703 4.9375-0.90625 1.6562-0.20703 3.3047-0.3125 4.9531-0.3125 4.3203 0 7.4375 0.85547 9.3438 2.5625 1.9141 1.6992 2.875 4.4609 2.875 8.2812z"/>
  </symbol>
  <symbol id="b" overflow="visible">
   <path d="m12.031-30.719v6.7969h7.875v5.4688h-7.875v10.141c0 1.1172 0.21875 1.8711 0.65625 2.2656 0.4375 0.38672 1.3125 0.57812 2.625 0.57812h3.9375v5.4688h-6.5625c-3.0234 0-5.1641-0.62891-6.4219-1.8906-1.2617-1.2578-1.8906-3.3984-1.8906-6.4219v-10.141h-3.7969v-5.4688h3.7969v-6.7969z"/>
  </symbol>
  <symbol id="g" overflow="visible">
   <path d="m19.953-20.422v-12.812h7.6875v33.234h-7.6875v-3.4531c-1.0547 1.4062-2.2148 2.4375-3.4844 3.0938-1.2734 0.65625-2.7422 0.98438-4.4062 0.98438-2.9492 0-5.3711-1.1719-7.2656-3.5156-1.8867-2.3438-2.8281-5.3594-2.8281-9.0469s0.94141-6.7031 2.8281-9.0469c1.8945-2.3438 4.3164-3.5156 7.2656-3.5156 1.6562 0 3.1172 0.33594 4.3906 1 1.2812 0.65625 2.4453 1.6836 3.5 3.0781zm-5.0469 15.484c1.6445 0 2.8945-0.59766 3.75-1.7969 0.86328-1.1953 1.2969-2.9297 1.2969-5.2031 0-2.2812-0.43359-4.0195-1.2969-5.2188-0.85547-1.1953-2.1055-1.7969-3.75-1.7969-1.625 0-2.8711 0.60156-3.7344 1.7969-0.85547 1.1992-1.2812 2.9375-1.2812 5.2188 0 2.2734 0.42578 4.0078 1.2812 5.2031 0.86328 1.1992 2.1094 1.7969 3.7344 1.7969z"/>
  </symbol>
  <symbol id="f" overflow="visible">
   <path d="m16.406-4.9375c1.6328 0 2.8828-0.59766 3.75-1.7969 0.86328-1.1953 1.2969-2.9297 1.2969-5.2031 0-2.2812-0.43359-4.0195-1.2969-5.2188-0.86719-1.1953-2.1172-1.7969-3.75-1.7969-1.6367 0-2.8906 0.60547-3.7656 1.8125-0.875 1.1992-1.3125 2.9336-1.3125 5.2031 0 2.2617 0.4375 3.9961 1.3125 5.2031 0.875 1.1992 2.1289 1.7969 3.7656 1.7969zm-5.0781-15.484c1.0508-1.3945 2.2188-2.4219 3.5-3.0781 1.2812-0.66406 2.7539-1 4.4219-1 2.9453 0 5.3672 1.1719 7.2656 3.5156 1.8945 2.3438 2.8438 5.3594 2.8438 9.0469s-0.94922 6.7031-2.8438 9.0469c-1.8984 2.3438-4.3203 3.5156-7.2656 3.5156-1.668 0-3.1406-0.33594-4.4219-1s-2.4492-1.6914-3.5-3.0781v3.4531h-7.6562v-33.234h7.6562z"/>
  </symbol>
  <symbol id="e" overflow="visible">
   <path d="m0.53125-23.922h7.6562l6.4219 16.234 5.4688-16.234h7.6562l-10.062 26.188c-1.0117 2.6641-2.1953 4.5234-3.5469 5.5781-1.3438 1.0625-3.1211 1.5938-5.3281 1.5938h-4.4219v-5.0156h2.3906c1.3008 0 2.2422-0.21094 2.8281-0.625 0.59375-0.40625 1.0547-1.1484 1.3906-2.2188l0.20312-0.65625z"/>
  </symbol>
  <symbol id="d" overflow="visible">
   <path d="m0.21875-31.891h29.391v6.2188h-10.578v25.672h-8.2188v-25.672h-10.594z"/>
  </symbol>
  <symbol id="k" overflow="visible">
   <path d="m25.844-19.953c0.96875-1.4766 2.1172-2.6016 3.4531-3.375 1.332-0.78125 2.7969-1.1719 4.3906-1.1719 2.75 0 4.8438 0.85156 6.2812 2.5469 1.4375 1.6875 2.1562 4.1523 2.1562 7.3906v14.562h-7.6875v-12.469c0.007812-0.1875 0.019531-0.37891 0.03125-0.57812 0.007812-0.19531 0.015625-0.48438 0.015625-0.85938 0-1.6953-0.25-2.9258-0.75-3.6875-0.5-0.75781-1.3086-1.1406-2.4219-1.1406-1.4492 0-2.5703 0.60156-3.3594 1.7969-0.79297 1.1992-1.2031 2.9297-1.2344 5.1875v11.75h-7.6875v-12.469c0-2.6562-0.23047-4.3633-0.6875-5.125-0.44922-0.75781-1.2578-1.1406-2.4219-1.1406-1.4688 0-2.6055 0.60547-3.4062 1.8125-0.79297 1.1992-1.1875 2.918-1.1875 5.1562v11.766h-7.7031v-23.922h7.7031v3.5c0.9375-1.3516 2.0156-2.3672 3.2344-3.0469 1.2188-0.6875 2.5547-1.0312 4.0156-1.0312 1.6562 0 3.1133 0.40234 4.375 1.2031 1.2695 0.79297 2.2344 1.9062 2.8906 3.3438z"/>
  </symbol>
  <symbol id="j" overflow="visible">
   <path d="m11.328-3.4531v12.547h-7.6562v-33.016h7.6562v3.5c1.0508-1.3945 2.2188-2.4219 3.5-3.0781 1.2812-0.66406 2.7539-1 4.4219-1 2.9453 0 5.3672 1.1719 7.2656 3.5156 1.8945 2.3438 2.8438 5.3594 2.8438 9.0469s-0.94922 6.7031-2.8438 9.0469c-1.8984 2.3438-4.3203 3.5156-7.2656 3.5156-1.668 0-3.1406-0.33594-4.4219-1s-2.4492-1.6914-3.5-3.0781zm5.0781-15.5c-1.6367 0-2.8906 0.60547-3.7656 1.8125-0.875 1.1992-1.3125 2.9336-1.3125 5.2031 0 2.2617 0.4375 3.9961 1.3125 5.2031 0.875 1.1992 2.1289 1.7969 3.7656 1.7969 1.6328 0 2.8828-0.59766 3.75-1.7969 0.86328-1.1953 1.2969-2.9297 1.2969-5.2031 0-2.2812-0.43359-4.0195-1.2969-5.2188-0.86719-1.1953-2.1172-1.7969-3.75-1.7969z"/>
  </symbol>
  <symbol id="i" overflow="visible">
   <path d="m3.6719-33.234h7.6562v33.234h-7.6562z"/>
  </symbol>
 </defs>
 <g>
  <path d="m586.25 306.25h-10.309c0.92969-8.707 1.5586-17.484 1.5586-26.25 0-130.27-102.06-236.25-227.5-236.25-115.8 0-213.71 91.902-226.11 210.58-25.469 3.5938-45.141 25.48-45.141 51.922 0 19.301 15.699 35 35 35h11.27c-1.6367 8.5312-2.5195 17.309-2.5195 26.25 0 57.898 35.332 105 78.75 105 4.9805 0 9.8359-0.69141 14.559-1.8711 39.148 29.773 85.41 45.621 134.19 45.621 83.406 0 159.21-46.848 199.3-122.5h19.453c28.953 0 52.5-23.547 52.5-52.5 0-19.301-15.699-35-35-35zm-27.902 0h-127.47c-21.605 0-41.914-8.4102-57.191-23.688-17.281-17.281-39.875-27.223-64.078-28.543l17.766-17.77h45.254l49.938 49.938c1.6367 1.6445 3.8672 2.5625 6.1875 2.5625h52.5c2.3203 0 4.5508-0.91797 6.1875-2.5625l52.5-52.5c3.4219-3.4219 3.4219-8.9531 0-12.371l-46.316-46.316 25.086-25.086c25.93 36.383 41.293 81.391 41.293 130.09 0 8.7773-0.65625 17.551-1.6523 26.25zm-398.29-72.562 20.066 20.062h-38.605c4.4453-38.598 18.637-74.059 39.863-103.74l24.992 24.988-46.312 46.312c-3.4258 3.4219-3.4258 8.9531-0.003906 12.375zm44.809 20.062-26.25-26.25 43.75-43.75h45.254l43.75 43.75-26.25 26.25zm122.5-122.5h45.254l43.75 43.75-43.75 43.75h-45.254l-43.75-43.75zm150.26 52.5 43.75 43.75-43.75 43.75h-45.254l-43.75-43.75 43.75-43.75zm30.246-47.75-30.246 30.25h-45.254l-43.75-43.75 43.715-43.715c29.16 13.004 54.914 32.707 75.535 57.215zm-93.352-64.145-41.895 41.895h-45.254l-41.797-41.797c20.375-6.9141 42.023-10.703 64.422-10.703 22.504 0 44.18 3.7461 64.523 10.605zm-146.71 7.0781 43.566 43.566-43.75 43.75h-45.254l-30.145-30.145c20.691-24.516 46.512-44.16 75.582-57.172zm-127.81 288.57c0-8.9961 0.99609-17.789 2.8789-26.25h17.789c-2.0312 8.2773-3.168 17.148-3.168 26.25 0 39.254 19.215 70 43.75 70s43.75-30.746 43.75-70c0-9.1172-1.1445-17.973-3.1953-26.25h17.816c1.8828 8.4609 2.8789 17.266 2.8789 26.25 0 48.246-27.477 87.5-61.25 87.5s-61.25-39.254-61.25-87.5zm83.703-26.25c2.4492 8.0078 3.7969 16.93 3.7969 26.25 0 30.941-13.832 52.5-26.25 52.5s-26.25-21.559-26.25-52.5c0-9.3086 1.3555-18.234 3.8047-26.25zm56.297 26.25c0-8.7852-0.85938-17.402-2.4414-25.805 12.496 1.2852 24.352 5.4688 34.844 12.145-9.5195 11.035-14.902 25.078-14.902 39.91 0 11.051 2.9844 21.41 8.1367 30.371-5.5117 22.426-17.598 42.891-34.57 58.555-12.73-5.3906-24.973-12.094-36.602-20.109 26.844-16.738 45.535-53.004 45.535-95.066zm122.5 26.25c0 24.125-19.625 43.75-43.75 43.75s-43.75-19.625-43.75-43.75c0-10.816 4.0078-21.062 11.086-29.016 0.070312 0.070313 0.14844 0.13281 0.22656 0.20312 18.586 18.574 43.289 28.812 69.562 28.812zm-73.824 99.645-4.2617 3.5859c-11.996-1.5039-23.746-4.0586-35.191-7.6562 13.309-14.016 23.492-30.773 29.828-49.016 10.711 9.1367 24.562 14.691 39.699 14.691 0.64844 0 1.2695-0.078125 1.9062-0.097656-8.2852 14.578-19.145 27.695-31.98 38.492zm20.082 5.3047c14.168-13.887 25.699-30.422 33.836-48.535 21.961-9.3125 37.406-31.102 37.406-56.414h25.77c-2.3789 38.598-20.152 74.551-49.961 99.652l-0.085938 0.078125c-14.828 3.4219-30.121 5.2695-45.723 5.2695-0.42188 0-0.82422-0.050781-1.2422-0.050781zm82.109-16.809c19.398-25.254 30.633-55.895 32.402-88.141h66.125c-23.441 40.129-58.102 70.605-98.527 88.141zm137.88-105.64h-172.88c-21.605 0-41.914-8.4102-57.191-23.688-18.582-18.574-43.285-28.812-69.559-28.812h-155.38c-9.6523 0-17.5-7.8477-17.5-17.5 0-19.301 15.699-35 35-35h172.88c21.605 0 41.914 8.4102 57.191 23.688 18.582 18.574 43.285 28.812 69.559 28.812h155.38c9.6523 0 17.5 7.8477 17.5 17.5 0 19.301-15.699 35-35 35z"/>
  <use x="70" y="691.25" xlink:href="#l"/>
  <use x="102.109375" y="691.25" xlink:href="#h"/>
  <use x="123.683594" y="691.25" xlink:href="#a"/>
  <use x="153.355469" y="691.25" xlink:href="#c"/>
  <use x="182.878906" y="691.25" xlink:href="#b"/>
  <use x="203.792969" y="691.25" xlink:href="#a"/>
  <use x="233.464844" y="691.25" xlink:href="#g"/>
  <use x="280.011719" y="691.25" xlink:href="#f"/>
  <use x="311.328125" y="691.25" xlink:href="#e"/>
  <use x="355.078125" y="691.25" xlink:href="#d"/>
  <use x="384.921875" y="691.25" xlink:href="#a"/>
  <use x="414.59375" y="691.25" xlink:href="#k"/>
  <use x="460.183594" y="691.25" xlink:href="#j"/>
  <use x="491.5" y="691.25" xlink:href="#i"/>
  <use x="506.496094" y="691.25" xlink:href="#c"/>
  <use x="536.019531" y="691.25" xlink:href="#b"/>
  <use x="556.933594" y="691.25" xlink:href="#a"/>
 </g>
</svg>
